Coordinates
version=1
nRows=4
nColumns=107
inDegrees=yes

Units are S.I. units (second, meters, Newtons, ...)
If the header above contains a line with 'inDegrees', this indicates whether rotational values are in degrees (yes) or radians (no).

endheader
time	sternoclavicular_r2	sternoclavicular_r3	unrotscap_r3	unrotscap_r2	acromioclavicular_r2	acromioclavicular_r3	acromioclavicular_r1	unrothum_r1	unrothum_r3	unrothum_r2	elv_angle	shoulder_elv	shoulder1_r2	shoulder_rot	elbow_flexion	pro_sup	deviation	flexion	proximal_distal_r1	proximal_distal_r3	cmc_flexion	cmc_abduction	mp_flexion	ip_flexion	mcp2_flexion	mcp2_abduction	pm2_flexion	md2_flexion	mcp3_flexion	mcp3_abduction	pm3_flexion	md3_flexion	mcp4_flexion	mcp4_abduction	pm4_flexion	md4_flexion	mcp5_flexion	mcp5_abduction	pm5_flexion	md5_flexion	bicpt_tx	bicpt_ty	bicpt_tz	bicpt2_tx	bicpt2_ty	bicpt2_tz	ptpt_tx	ptpt_ty	ptpt_tz	FCUpt_tx	FCUpt_ty	FCUpt_tz	EDCpt_tx	EDCpt_ty	EDCpt_tz	APLpt_tx	APLpt_ty	APLpt_tz	FPLpt_tx	FPLpt_ty	FPLpt_tz	FPLpt2_tx	FPLpt2_ty	FPLpt2_tz	PEC1pt2_tx	PEC1pt2_ty	PEC1pt2_tz	PEC1pt3_tx	PEC1pt3_ty	PEC1pt3_tz	PEC2pt2_tx	PEC2pt2_ty	PEC2pt2_tz	PEC2pt3_tx	PEC2pt3_ty	PEC2pt3_tz	PEC3pt2_tx	PEC3pt2_ty	PEC3pt2_tz	PEC3pt3_tx	PEC3pt3_ty	PEC3pt3_tz	DELT2pt2a_tx	DELT2pt2a_ty	DELT2pt2a_tz	DELT2pt2_tx	DELT2pt2_ty	DELT2pt2_tz	LAT1pt2_tx	LAT1pt2_ty	LAT1pt2_tz	LAT1pt3_tx	LAT1pt3_ty	LAT1pt3_tz	LAT2pt2_tx	LAT2pt2_ty	LAT2pt2_tz	LAT2pt3_tx	LAT2pt3_ty	LAT2pt3_tz	LAT3pt2_tx	LAT3pt2_ty	LAT3pt2_tz	LAT3pt3_tx	LAT3pt3_ty	LAT3pt3_tz
      1.80000000	     -0.31721349	      0.13435666	     -0.13435666	      0.31721349	     -0.06422928	      0.51907845	      0.23332219	     -0.23332219	     -0.51907845	      0.06422928	    100.28766529	     75.10311443	     -1.75034996	    -30.24279523	     30.34342152	     59.19336289	      0.25671721	     -0.14617997	      0.29445886	     -0.07308998	     10.56546412	    -18.95626237	    -14.98118582	      6.53442017	     19.38212688	      2.53092179	     33.64599812	    -12.91472981	     26.89330006	     -1.63467008	     20.09190003	     18.25097740	     33.15511979	     -6.99120840	      0.49470268	     21.91372635	     33.29019270	    -11.72889752	      4.12484980	      5.26802313	      0.00090367	     -0.03107782	     -0.00486019	      0.01618888	     -0.01844294	     -0.00516285	      0.00317628	     -0.06772812	     -0.00481834	      0.00976945	     -0.18304349	     -0.00038396	     -0.00710319	      0.00221786	     -0.00009119	      0.00013167	      0.00005267	      0.00026334	      0.00016854	      0.00050561	      0.00028440	      0.00003194	     -0.00020212	     -0.00024255	      0.00246172	      0.00863687	      0.00600825	     -0.00805273	      0.01944338	     -0.01844200	      0.00246172	      0.00863687	      0.00600825	      0.00054241	      0.01802476	     -0.00947135	      0.00390746	      0.00480285	      0.01586783	      0.00000000	      0.00754191	      0.00000000	     -0.00705135	     -0.03258643	     -0.00621729	      0.01898525	     -0.00076539	     -0.00761740	     -0.00087620	      0.01468684	     -0.00600825	      0.00241999	      0.02119579	     -0.01752407	     -0.00588308	      0.01272582	     -0.00538239	     -0.01226685	      0.02687025	     -0.03008300	     -0.02303164	      0.01422788	     -0.00721825	     -0.01527098	      0.03104265	     -0.03759331
      1.83333333	     -0.32000596	      0.13553942	     -0.13553942	      0.32000596	     -0.06479470	      0.52364796	      0.23537615	     -0.23537615	     -0.52364796	      0.06479470	     99.91433518	     75.76425615	     -1.74383412	    -26.96727169	     29.04282870	     53.17218118	      0.21679217	     -0.37191573	      0.25574876	     -0.18595787	      9.14186855	    -17.38048872	    -16.96940694	      6.75014161	     23.79908991	      1.73822472	     33.37167746	    -13.90549785	     31.52334063	     -2.50938012	     19.51871239	     18.25506289	     37.40835098	     -8.06190648	      0.26396132	     21.86031581	     36.23221770	    -12.12306587	      5.80975628	      5.10338581	      0.00086065	     -0.03092875	     -0.00483617	      0.01640056	     -0.01808963	     -0.00594225	      0.00362118	     -0.06744044	     -0.00433330	      0.00913317	     -0.18319642	     -0.00041460	     -0.00638065	      0.00194285	      0.00000484	      0.00026469	      0.00010588	      0.00052938	      0.00033880	      0.00101640	      0.00057173	      0.00003374	     -0.00018212	     -0.00021854	      0.00248339	      0.00871290	      0.00606115	     -0.00812362	      0.01961454	     -0.01860435	      0.00248339	      0.00871290	      0.00606115	      0.00054719	      0.01818344	     -0.00955472	      0.00393267	      0.00484513	      0.01593018	      0.00000000	      0.00767620	      0.00000000	     -0.00711343	     -0.03287330	     -0.00632879	      0.01747210	     -0.00065495	     -0.00607972	     -0.00088392	      0.01481613	     -0.00606115	      0.00244129	      0.02138237	     -0.01767834	     -0.00593487	      0.01283784	     -0.00542978	     -0.01237484	      0.02710679	     -0.03034782	     -0.02323439	      0.01435313	     -0.00728179	     -0.01540541	      0.03131592	     -0.03792425
      1.86666667	     -0.32067023	      0.13582078	     -0.13582078	      0.32067023	     -0.06492920	      0.52473495	      0.23586475	     -0.23586475	     -0.52473495	      0.06492920	     99.72214634	     75.92152760	     -1.74047979	    -25.99574847	     29.03630853	     51.56974910	      0.21706678	     -0.40397729	      0.25602395	     -0.20198864	      7.19815566	    -17.83030016	    -15.35344361	      3.97618913	     24.27409520	      1.51500843	     34.40440896	    -14.67482381	     33.26840176	     -2.65855496	     18.22172369	     18.88481169	     38.84590795	     -7.86451262	     -0.84279745	     24.52302825	     36.64857370	    -11.46010324	      7.23044351	      5.07467301	      0.00086043	     -0.03092800	     -0.00483605	      0.01644290	     -0.01808786	     -0.00614110	      0.00373958	     -0.06736388	     -0.00420422	      0.00896572	     -0.18323538	     -0.00041815	     -0.00618836	      0.00187154	      0.00002709	      0.00027665	      0.00011066	      0.00055331	      0.00035412	      0.00106236	      0.00059757	      0.00003613	     -0.00015119	     -0.00018143	      0.00248854	      0.00873098	      0.00607373	     -0.00814048	      0.01965526	     -0.01864297	      0.00248854	      0.00873098	      0.00607373	      0.00054832	      0.01822118	     -0.00957456	      0.00393864	      0.00485519	      0.01594486	      0.00000000	      0.00770832	      0.00000000	     -0.00712819	     -0.03294154	     -0.00635546	      0.01699572	     -0.00062283	     -0.00565041	     -0.00088575	      0.01484689	     -0.00607373	      0.00244636	      0.02142676	     -0.01771504	     -0.00594719	      0.01286449	     -0.00544105	     -0.01240053	      0.02716306	     -0.03041082	     -0.02328262	      0.01438292	     -0.00729691	     -0.01543739	      0.03138092	     -0.03800297
      1.90000000	     -0.32214392	      0.13644496	     -0.13644496	      0.32214392	     -0.06522759	      0.52714645	      0.23694870	     -0.23694870	     -0.52714645	      0.06522759	     99.44629649	     76.27043684	     -1.73566530	    -24.11008097	     28.62428868	     47.88633732	      0.19562097	     -0.50878484	      0.23416304	     -0.25439242	      6.68515590	    -18.14858818	    -18.29813329	      7.16245150	     25.98449896	      0.70520220	     32.83677178	    -13.44051142	     34.34072088	     -3.20641687	     19.22195582	     18.14318728	     39.90653801	     -8.33602870	      0.28380877	     21.72260369	     37.63228162	    -11.18050705	      6.81342035	      5.10720216	      0.00084680	     -0.03088078	     -0.00482845	      0.01651800	     -0.01797593	     -0.00658455	      0.00401174	     -0.06718790	     -0.00390750	      0.00858382	     -0.18332218	     -0.00041898	     -0.00574635	      0.00171065	      0.00007295	      0.00030377	      0.00012151	      0.00060755	      0.00038883	      0.00116649	      0.00065615	      0.00003687	     -0.00014230	     -0.00017076	      0.00249998	      0.00877111	      0.00610164	     -0.00817789	      0.01974559	     -0.01872865	      0.00249998	      0.00877111	      0.00610164	      0.00055084	      0.01830492	     -0.00961856	      0.00395185	      0.00487750	      0.01597720	      0.00000000	      0.00777983	      0.00000000	     -0.00716095	     -0.03309292	     -0.00641483	      0.01603502	     -0.00056140	     -0.00485418	     -0.00088982	      0.01491512	     -0.00610164	      0.00245761	      0.02152523	     -0.01779645	     -0.00597452	      0.01292361	     -0.00546605	     -0.01245752	      0.02728789	     -0.03055057	     -0.02338962	      0.01444902	     -0.00733044	     -0.01550834	      0.03152514	     -0.03817762
